<?xml version="1.0" standalone="no"?><!DOCTYPE svg PUBLIC "-//W3C//DTD SVG 1.1//EN" "http://www.w3.org/Graphics/SVG/1.1/DTD/svg11.dtd"><svg t="1726624030850" class="icon" viewBox="0 0 1024 1024" version="1.1" xmlns="http://www.w3.org/2000/svg" p-id="6628" xmlns:xlink="http://www.w3.org/1999/xlink" width="16" height="16"><path d="M438.272 773.504l383.104-417.152-65.984-60.608-315.072 343.04-169.728-196.608-67.84 58.56 235.52 272.768z" fill="#038B09" p-id="6629"></path><path d="M0 128a128 128 0 0 1 128-128h768a128 128 0 0 1 128 128v768a128 128 0 0 1-128 128H128a128 128 0 0 1-128-128V128z m128-32a32 32 0 0 0-32 32v768a32 32 0 0 0 32 32h768a32 32 0 0 0 32-32V128a32 32 0 0 0-32-32H128z" fill="#038B09" p-id="6630"></path></svg>