<?xml version="1.0" standalone="no"?><!DOCTYPE svg PUBLIC "-//W3C//DTD SVG 1.1//EN" "http://www.w3.org/Graphics/SVG/1.1/DTD/svg11.dtd"><svg t="1726624079819" class="icon" viewBox="0 0 1024 1024" version="1.1" xmlns="http://www.w3.org/2000/svg" p-id="7889" xmlns:xlink="http://www.w3.org/1999/xlink" width="16" height="16"><path d="M672 172.8h-320v76.8h320V172.8zM128 313.6h768v76.8h-92.8c2.112 8.192 3.2 16.768 3.2 25.6v384a102.4 102.4 0 0 1-102.4 102.4H320a102.4 102.4 0 0 1-102.4-102.4v-384c0-8.832 1.088-17.408 3.2-25.6H128V313.6z m577.472 76.8H318.528a25.6 25.6 0 0 0-24.128 25.6v384c0 14.08 11.52 25.6 25.6 25.6h384a25.6 25.6 0 0 0 25.6-25.6v-384a25.6 25.6 0 0 0-24.128-25.6zM480.64 480.96v256h-76.8v-256h76.8z m139.52 254.528V480.896h-76.8v254.528h76.8z" fill="#333333" p-id="7890"></path></svg>