<?xml version="1.0" standalone="no"?><!DOCTYPE svg PUBLIC "-//W3C//DTD SVG 1.1//EN" "http://www.w3.org/Graphics/SVG/1.1/DTD/svg11.dtd"><svg t="1726623980289" class="icon" viewBox="0 0 1024 1024" version="1.1" xmlns="http://www.w3.org/2000/svg" p-id="5211" xmlns:xlink="http://www.w3.org/1999/xlink" width="16" height="16"><path d="M680.576 390.08H221.824v70.784h544.64a35.456 35.456 0 0 0 25.216-60.48l-148.8-147.84-50.368 49.984 88.064 87.552zM343.424 633.92h458.752V563.136h-544.64a35.456 35.456 0 0 0-25.216 60.48l148.8 147.84 50.368-49.984-88.064-87.552z" fill="#333333" p-id="5212"></path><path d="M64 128a64 64 0 0 1 64-64h768a64 64 0 0 1 64 64v768a64 64 0 0 1-64 64H128a64 64 0 0 1-64-64V128z m64 0v768h768V128H128z" fill="#333333" p-id="5213"></path></svg>