<?xml version="1.0" standalone="no"?><!DOCTYPE svg PUBLIC "-//W3C//DTD SVG 1.1//EN" "http://www.w3.org/Graphics/SVG/1.1/DTD/svg11.dtd"><svg t="1726624068678" class="icon" viewBox="0 0 1024 1024" version="1.1" xmlns="http://www.w3.org/2000/svg" p-id="7574" xmlns:xlink="http://www.w3.org/1999/xlink" width="16" height="16"><path d="M640 512a128 128 0 1 1-256 0 128 128 0 0 1 256 0zM563.2 512a51.2 51.2 0 1 0-102.4 0 51.2 51.2 0 0 0 102.4 0z" fill="#333333" p-id="7575"></path><path d="M480 146.496a64 64 0 0 1 64 0l268.544 155.008a64 64 0 0 1 32 55.424v310.144a64 64 0 0 1-32 55.424L544 877.44a64 64 0 0 1-64 0L211.456 722.56a64 64 0 0 1-32-55.424V356.928a64 64 0 0 1 32-55.424L480 146.56zM256.256 364.352v295.296L512 807.296l255.744-147.648V364.352L512 216.704 256.256 364.352z" fill="#333333" p-id="7576"></path></svg>