<?xml version="1.0" standalone="no"?><!DOCTYPE svg PUBLIC "-//W3C//DTD SVG 1.1//EN" "http://www.w3.org/Graphics/SVG/1.1/DTD/svg11.dtd"><svg t="1726624095701" class="icon" viewBox="0 0 1024 1024" version="1.1" xmlns="http://www.w3.org/2000/svg" p-id="8203" xmlns:xlink="http://www.w3.org/1999/xlink" width="16" height="16"><path d="M490.666667 153.6c-98.133333 0-188.757333 31.829333-262.186667 85.717333a25.6 25.6 0 1 1-30.293333-41.301333A492.8 492.8 0 0 1 490.666667 102.4c100.693333 0 194.432 30.08 272.597333 81.792l-10.837333-61.482667 50.432-8.917333 26.666666 151.296-151.296 26.666667-8.874666-50.432 69.034666-12.16A441.557333 441.557333 0 0 0 490.666667 153.6zM384 298.666667v640H85.333333L384 298.666667zM640 298.666667v640h298.666667L640 298.666667z m68.266667 307.712l123.221333 264.021333H708.266667v-264.021333zM486.4 298.666667v42.666666h51.2V298.666667h-51.2zM486.4 384v85.333333h51.2V384h-51.2zM486.4 512v85.333333h51.2v-85.333333h-51.2zM486.4 640v85.333333h51.2v-85.333333h-51.2zM486.4 768v85.333333h51.2v-85.333333h-51.2zM486.4 896v42.666667h51.2v-42.666667h-51.2z" fill="#333333" p-id="8204"></path></svg>