<?xml version="1.0" standalone="no"?><!DOCTYPE svg PUBLIC "-//W3C//DTD SVG 1.1//EN" "http://www.w3.org/Graphics/SVG/1.1/DTD/svg11.dtd"><svg t="1726624143496" class="icon" viewBox="0 0 1024 1024" version="1.1" xmlns="http://www.w3.org/2000/svg" p-id="9779" xmlns:xlink="http://www.w3.org/1999/xlink" width="16" height="16"><path d="M519.253333 42.88l159.914667 159.872-48.256 48.298667-77.482667-77.525334v158.293334h-68.266666v-158.293334L407.637333 251.050667l-48.213333-48.298667 159.872-159.872zM519.253333 981.12l-159.872-159.872 48.256-48.298667 77.525334 77.525334v-158.293334h68.266666v158.293334l77.482667-77.525334 48.256 48.298667-159.872 159.872zM981.12 512l-159.872-159.914667-48.298667 48.298667 77.525334 77.482667h-158.293334v68.266666h158.293334l-77.525334 77.482667 48.298667 48.298667L981.12 512zM42.88 512l159.872-159.914667 48.298667 48.298667L173.525333 477.866667h158.293334v68.266666h-158.293334l77.525334 77.482667-48.298667 48.298667L42.88 512zM512 597.333333a85.333333 85.333333 0 1 0 0-170.666666 85.333333 85.333333 0 0 0 0 170.666666z" fill="#333333" p-id="9780"></path></svg>