<?xml version="1.0" standalone="no"?><!DOCTYPE svg PUBLIC "-//W3C//DTD SVG 1.1//EN" "http://www.w3.org/Graphics/SVG/1.1/DTD/svg11.dtd"><svg t="1726624134535" class="icon" viewBox="0 0 1024 1024" version="1.1" xmlns="http://www.w3.org/2000/svg" p-id="9463" xmlns:xlink="http://www.w3.org/1999/xlink" width="16" height="16"><path d="M148.93056 402.59584c31.08864-149.7088 175.88224-245.5552 322.7648-215.08096 30.3104 6.30784 58.368 17.44896 83.51744 32.52224a30.72 30.72 0 1 0 31.5392-52.71552 329.85088 329.85088 0 0 0-102.56384-39.97696c-180.8384-37.51936-357.5808 80.52736-395.42784 262.7584a341.52448 341.52448 0 0 0-6.43072 92.48768c2.33472 34.73408 43.4176 46.77632 65.7408 24.61696l81.79712-81.1008a30.72 30.72 0 0 0-43.25376-43.66336l-41.20576 40.87808c0.90112-6.88128 2.048-13.80352 3.52256-20.72576z" fill="#333333" p-id="9464"></path><path d="M266.24 376.6272a40.96 40.96 0 0 1 40.96-40.96h491.52a40.96 40.96 0 0 1 40.96 40.96v491.52a40.96 40.96 0 0 1-40.96 40.96H307.2a40.96 40.96 0 0 1-40.96-40.96v-491.52z m65.536 466.944h442.368v-442.368H331.776v442.368z" fill="#333333" p-id="9465"></path></svg>