<?xml version="1.0" standalone="no"?><!DOCTYPE svg PUBLIC "-//W3C//DTD SVG 1.1//EN" "http://www.w3.org/Graphics/SVG/1.1/DTD/svg11.dtd"><svg t="1726624129525" class="icon" viewBox="0 0 1024 1024" version="1.1" xmlns="http://www.w3.org/2000/svg" p-id="9305" xmlns:xlink="http://www.w3.org/1999/xlink" width="16" height="16"><path d="M738.346667 469.333333h-184.32v68.266667h184.32V469.333333z" fill="#333333" p-id="9306"></path><path d="M465.066667 72.832a42.666667 42.666667 0 0 1 60.330666 0L623.232 170.666667h170.666667a42.666667 42.666667 0 0 1 42.666666 42.666666v170.666667l81.066667 81.066667a42.666667 42.666667 0 0 1 0 60.330666l-81.066667 81.066667V768a42.666667 42.666667 0 0 1-42.666666 42.666667H632.32l-106.922667 106.922666a42.666667 42.666667 0 0 1-60.373333 0L358.101333 810.666667H239.232a42.666667 42.666667 0 0 1-42.666667-42.666667v-118.912l-123.733333-123.733333a42.666667 42.666667 0 0 1 0-60.330667L196.565333 341.333333V213.333333a42.666667 42.666667 0 0 1 42.666667-42.666666h128L465.066667 72.832z m302.933333 417.024A277.333333 277.333333 0 0 0 511.744 213.333333v553.088A277.333333 277.333333 0 0 0 768 489.856zM375.082667 435.2V341.333333h-68.266667v93.866667h-93.866667v68.266667h93.866667V597.333333h68.266667v-93.866666h93.866666v-68.266667h-93.866666z" fill="#333333" p-id="9307"></path></svg>