<?xml version="1.0" standalone="no"?><!DOCTYPE svg PUBLIC "-//W3C//DTD SVG 1.1//EN" "http://www.w3.org/Graphics/SVG/1.1/DTD/svg11.dtd"><svg t="1726624162052" class="icon" viewBox="0 0 1024 1024" version="1.1" xmlns="http://www.w3.org/2000/svg" p-id="10409" xmlns:xlink="http://www.w3.org/1999/xlink" width="16" height="16"><path d="M613.04832 230.8096v202.05568h-201.9328V230.8096h201.9328z" fill="#333333" p-id="10410"></path><path d="M184.32 165.2736a40.96 40.96 0 0 0-40.96 40.96v655.36a40.96 40.96 0 0 0 40.96 40.96h655.36a40.96 40.96 0 0 0 40.96-40.96v-655.36a40.96 40.96 0 0 0-40.96-40.96H184.32z m24.576 65.536h606.208v202.1376h-202.05568v201.9328H815.104v202.1376h-202.05568v-202.05568h-201.9328v202.05568H208.896V634.88h202.05568v-201.9328H208.896V230.8096z" fill="#333333" p-id="10411"></path></svg>