<?xml version="1.0" standalone="no"?><!DOCTYPE svg PUBLIC "-//W3C//DTD SVG 1.1//EN" "http://www.w3.org/Graphics/SVG/1.1/DTD/svg11.dtd"><svg t="1726624153486" class="icon" viewBox="0 0 1024 1024" version="1.1" xmlns="http://www.w3.org/2000/svg" p-id="10094" xmlns:xlink="http://www.w3.org/1999/xlink" width="16" height="16"><path d="M253.09184 280.9856L203.24352 95.0272l51.44576-13.80352 26.29632 98.18112L364.66688 34.4064l46.12096 26.624L327.10656 206.0288l98.14016-26.29632 13.80352 51.4048-185.9584 49.84832zM579.33824 376.79104a67.05152 67.05152 0 0 0-105.34912 65.20832l51.89632 317.35808-137.50272-13.02528h-0.16384a55.7056 55.7056 0 0 0-35.47136 102.4l0.08192 0.04096 168.3456 108.01152a32.768 32.768 0 1 1-35.34848 55.17312L317.56288 903.9872l-0.04096-0.04096a121.2416 121.2416 0 0 1 77.12768-222.86336h0.08192l52.75648 4.99712-38.17472-233.55392a132.66944 132.66944 0 0 1 109.48608-152.20736 132.58752 132.58752 0 0 1 152.20736 109.52704l22.36416 135.70048a318.09536 318.09536 0 0 1 196.89472 62.83264l0.28672 0.2048 0.28672 0.24576a227.98336 227.98336 0 0 1 87.6544 166.46144 305.39776 305.39776 0 0 1-27.60704 155.32032 32.768 32.768 0 0 1-59.392-27.77088 239.77984 239.77984 0 0 0 21.7088-122.34752l-0.08192-0.49152v-0.45056a162.48832 162.48832 0 0 0-62.2592-118.784 252.55936 252.55936 0 0 0-181.0432-47.9232l-31.17056 3.80928-32.31744-196.28032a67.05152 67.05152 0 0 0-27.0336-43.6224zM215.32672 341.52448L29.36832 391.33184l13.76256 51.44576 98.18112-26.29632-83.68128 144.91648 46.08 26.624 83.68128-144.91648 26.29632 98.14016 51.44576-13.80352-49.80736-185.9584z" fill="#333333" p-id="10095"></path></svg>