<?xml version="1.0" standalone="no"?><!DOCTYPE svg PUBLIC "-//W3C//DTD SVG 1.1//EN" "http://www.w3.org/Graphics/SVG/1.1/DTD/svg11.dtd"><svg t="1726624149654" class="icon" viewBox="0 0 1024 1024" version="1.1" xmlns="http://www.w3.org/2000/svg" p-id="9936" xmlns:xlink="http://www.w3.org/1999/xlink" width="16" height="16"><path d="M512 820.0192a245.76 245.76 0 0 1-244.81792-223.88736h489.63584A245.76 245.76 0 0 1 512 820.0192z" fill="#333333" p-id="9937"></path><path d="M282.86976 864.6656c-180.224-143.36-188.416-413.696-16.384-565.248l245.76-217.088 245.76 217.088c172.032 155.648 163.84 425.984-20.48 565.248-131.072 106.496-319.488 106.496-454.656 0z m229.376-694.8864L309.78048 348.5696c-140.9024 124.1088-134.88128 346.3168 13.76256 464.6912 111.73888 87.94112 266.0352 87.12192 372.65408 0.49152l0.86016-0.73728 0.94208-0.69632c150.3232-113.58208 158.55616-335.0528 16.30208-464.0768l-202.09664-178.50368z" fill="#333333" p-id="9938"></path></svg>