<?xml version="1.0" standalone="no"?><!DOCTYPE svg PUBLIC "-//W3C//DTD SVG 1.1//EN" "http://www.w3.org/Graphics/SVG/1.1/DTD/svg11.dtd"><svg t="1726624091305" class="icon" viewBox="0 0 1024 1024" version="1.1" xmlns="http://www.w3.org/2000/svg" p-id="8046" xmlns:xlink="http://www.w3.org/1999/xlink" width="16" height="16"><path d="M810.666667 170.666667l110.848 64-256 443.392-110.848-64L810.666667 170.666667zM533.333333 651.008l110.848 64-42.666666 73.898667-76.757334 4.949333-34.090666-68.949333 42.666666-73.898667zM302.250667 335.274667a34.133333 34.133333 0 1 0-35.114667 58.538666c51.2 30.72 68.864 54.528 73.685333 69.717334 3.925333 12.330667 1.365333 25.984-13.738666 45.397333-15.616 20.053333-40.192 40.32-69.12 62.549333l-13.312 10.112c-23.978667 18.218667-49.749333 37.802667-69.418667 57.514667-24.832 24.789333-39.850667 52.224-38.613333 81.536 1.194667 29.525333 18.474667 51.157333 36.096 65.237333 17.664 14.122667 39.168 23.765333 58.24 29.866667 18.944 6.058667 38.570667 9.6 53.76 9.6h170.666666a34.133333 34.133333 0 0 0 0-68.266667h-170.666666a122.453333 122.453333 0 0 1-32.938667-6.4c-14.250667-4.522667-27.392-10.922667-36.394667-18.133333-9.088-7.253333-10.453333-12.288-10.581333-14.762667-0.085333-2.645333 0.853333-12.586667 18.688-30.421333 16.128-16.085333 37.376-32.298667 61.44-50.602667l14.549333-11.093333c28.373333-21.802667 59.776-46.933333 81.493334-74.837333 22.229333-28.586667 38.4-65.578667 24.917333-107.946667-12.501333-39.424-48.128-74.325333-103.637333-107.605333z" fill="#333333" p-id="8047"></path></svg>