<?xml version="1.0" standalone="no"?><!DOCTYPE svg PUBLIC "-//W3C//DTD SVG 1.1//EN" "http://www.w3.org/Graphics/SVG/1.1/DTD/svg11.dtd"><svg t="1726624003027" class="icon" viewBox="0 0 1024 1024" version="1.1" xmlns="http://www.w3.org/2000/svg" p-id="5683" xmlns:xlink="http://www.w3.org/1999/xlink" width="16" height="16"><path d="M440.234667 171.648c-28.416 2.688-61.696 10.922667-93.952 23.722667L314.88 116.053333c38.613333-15.317333 79.786667-25.770667 117.290667-29.354666l8.106666 84.906666zM495.402667 177.066667a20.522667 20.522667 0 0 0-3.498667-1.706667l32.256-79.018667c14.506667 5.888 29.013333 15.232 39.936 29.653334 11.221333 14.890667 16.64 32.512 16.64 51.157333 0 26.88-3.669333 49.792-6.869333 68.053333L489.813333 230.4c2.986667-17.024 5.589333-33.962667 5.589334-53.205333V177.066667zM288.554667 224.512c-14.08 8.96-26.026667 18.346667-35.541334 27.861333-12.288 12.330667-24.32 28.672-35.285333 48.64L142.933333 259.925333a300.8 300.8 0 0 1 49.706667-67.84 294.4 294.4 0 0 1 50.048-39.552l45.866667 71.978667zM562.133333 392.832c-28.16-14.08-50.688-30.72-64.554666-53.418667l72.832-44.501333c1.962667 3.242667 8.405333 10.837333 29.866666 21.589333 7.04 3.498667 17.322667 6.058667 32.213334 6.954667l-5.162667 85.205333c-21.12-1.28-44.032-5.248-65.194667-15.829333zM712.234667 404.906667l-11.392 1.066666-7.893334-84.949333 11.776-1.152c30.890667-3.029333 68.224-6.698667 99.413334-1.621333l-13.781334 84.224c-19.370667-3.157333-44.586667-0.768-78.122666 2.432zM186.112 381.141333a421.376 421.376 0 0 0-14.208 129.962667l-85.205333 4.48a506.666667 506.666667 0 0 1 17.066666-156.672l82.346667 22.229333zM810.794667 443.733333c1.536-16.981333-0.298667-26.325333-2.005334-30.890666l79.872-30.037334c7.68 20.48 9.386667 43.733333 7.125334 68.693334l-84.992-7.722667zM186.965333 594.56c6.656 19.925333 15.36 38.357333 26.368 54.784 10.581333 15.914667 21.034667 30.336 31.488 43.349333l-66.645333 53.333334a701.184 701.184 0 0 1-35.84-49.365334 313.941333 313.941333 0 0 1-36.352-75.178666l80.981333-26.922667zM291.968 742.869333c26.752 23.594667 54.186667 39.68 83.882667 50.304l-28.672 80.341334a339.712 339.712 0 0 1-111.616-66.56l56.405333-64.085334zM440.789333 807.850667c16.298667 1.877333 33.621333 2.816 52.266667 2.816v85.333333c-21.418667 0-42.112-1.066667-62.165333-3.413333l9.898666-84.736zM682.666667 768h-85.333334v-85.333333h85.333334v-85.333334h85.333333v85.333334h85.333333v85.333333h-85.333333v85.333333h-85.333333v-85.333333z" fill="#333333" p-id="5684"></path></svg>