<?xml version="1.0" standalone="no"?><!DOCTYPE svg PUBLIC "-//W3C//DTD SVG 1.1//EN" "http://www.w3.org/Graphics/SVG/1.1/DTD/svg11.dtd"><svg t="1726624119060" class="icon" viewBox="0 0 1024 1024" version="1.1" xmlns="http://www.w3.org/2000/svg" p-id="8988" xmlns:xlink="http://www.w3.org/1999/xlink" width="16" height="16"><path d="M512 742.4a230.4 230.4 0 0 0 0-460.8v460.8z" fill="#333333" p-id="8989"></path><path d="M469.333333 15.36h85.333334v170.666667h-85.333334v-170.666667zM512 810.666667a298.666667 298.666667 0 1 0 0-597.333334 298.666667 298.666667 0 0 0 0 597.333334z m0-68.266667a230.4 230.4 0 1 1 0-460.8 230.4 230.4 0 0 1 0 460.8zM554.666667 1008.64v-170.666667h-85.333334v170.666667h85.333334zM1008.64 554.666667h-170.666667v-85.333334h170.666667v85.333334zM186.026667 554.666667v-85.333334h-170.666667v85.333334h170.666667z" fill="#333333" p-id="8990"></path><path d="M893.397333 833.024l-60.373333 60.330667-120.661333-120.661334 60.330666-60.330666 120.704 120.661333zM251.306667 311.637333L311.637333 251.306667 190.976 130.645333 130.645333 190.976 251.306667 311.637333zM190.976 893.354667l-60.330667-60.330667 120.661334-120.661333 60.330666 60.330666-120.661333 120.661334zM712.362667 251.306667l60.330666 60.330666 120.704-120.661333-60.373333-60.330667-120.661333 120.661334z" fill="#333333" p-id="8991"></path></svg>