<svg width="24" height="24" viewBox="0 0 24 24" fill="none" xmlns="http://www.w3.org/2000/svg">
<path fill-rule="evenodd" clip-rule="evenodd" d="M11.289 4.55368C7.31256 4.55368 4.08901 7.77723 4.08901 11.7537C4.08901 15.7301 7.31256 18.9537 11.289 18.9537C15.2655 18.9537 18.489 15.7301 18.489 11.7537C18.489 7.77723 15.2655 4.55368 11.289 4.55368ZM2.48901 11.7537C2.48901 6.89357 6.42891 2.95368 11.289 2.95368C16.1491 2.95368 20.089 6.89357 20.089 11.7537C20.089 13.6577 19.4843 15.4205 18.4565 16.8605L21.2766 19.6806C21.589 19.9931 21.589 20.4996 21.2766 20.812C20.9642 21.1244 20.4577 21.1244 20.1453 20.812L17.4097 18.0764C15.8259 19.6099 13.6677 20.5537 11.289 20.5537C6.42891 20.5537 2.48901 16.6138 2.48901 11.7537ZM10.5391 12.3535V14.5035H12.1391V12.3535H14.2891V10.7535H12.1391V8.50348H10.5391V10.7535H8.28906V12.3535H10.5391Z" fill="#45537A"/>
</svg>
